<svg version="1.1" id="Layer_1" xmlns="http://www.w3.org/2000/svg" x="0" y="0" viewBox="0 0 169.6 107.9" xml:space="preserve"><style>.st0{fill:#bc32ef}.st1{fill:#fff}.st2{fill:#bc32ef}.st3{fill:#fed524}</style><switch><g><path class="st0" d="M20.3 71.9c-.5-.1-.9-.2-1.1-.3-1-.4-1.2-1.2-1.2-1.5 0-.4 0-.9.3-1.7.3-.8.5-1.4.8-2 .3-.6.7-1 1.1-1.3.5-.3 1-.5 1.6-.5.4 0 .8 0 1.2.1.1 0 .3.1.5.1l.3.1c.1 0 .4.1.7.2.3.1.7.2 1.2.3l2.2.6c-.6-.4-1.4-.8-2.3-1.3l-3.7-2.1c-.4-.3-.7-.7-.8-1.2v-.9c0-.2.1-.5.2-.8.1-.3.1-.5.2-.7.2-.7.5-1.4.7-1.9.3-.6.6-1 1-1.4.4-.3.9-.6 1.5-.7.5-.1 1-.1 1.6 0 .3 0 .6.1 1 .2s1.1.3 1.9.5c.5.1 1.1.3 1.8.5-.2-.1-5.8-3.6-5.8-3.6-.4-.2-.9-.6-1-1.2-.2-.2-.2-.7.1-1.4.1-.2.2-.5.3-.9.2-.4.4-.9.7-1.3.3-.4.8-.8 1.2-1 .5-.2 1-.3 1.5-.2.2 0 .4.1.5.2.3.1.8.4 1.4.8.5.4 1.2.8 1.8 1.3.7.5 1.4 1 2.2 1.6l2.3 1.8c.8.6 1.6 1.2 2.3 1.8.7.6 1.4 1.1 2 1.6.6.5 1.1.9 1.5 1.3l.8.8c.3.4.5.9.5 1.4 0 .3 0 .7-.1 1l-.8 2.5c-.2.6-.5 1.1-.9 1.5-.4.3-.8.6-1.3.7-.4.1-.9.2-1.4.1-.3 0-.6-.1-.9-.1-.2 0-.3-.1-.5-.1l-3.3-1h.1c.9.5 1.7 1 2.4 1.5s1.3.9 1.8 1.2c.7.5 1 .8 1.2.9.3.4.5.8.6 1.4 0 .4 0 .7-.2 1l-.8 2.4c-.2.6-.5 1.1-.9 1.4-.4.3-.8.5-1.3.7-.4.1-.9.1-1.4.1-.4 0-.8-.1-1.2-.1-2.9-.4-5.3-.8-7.2-1.1-1.9-.3-3.4-.5-4.5-.7-1.2-.2-2-.3-2.5-.5l.1-.1zM42.4 54.2c-1-.2-2.1-.8-3.2-1.7-.4-.3-.8-.7-1.3-1.2s-1-1.1-1.5-1.8-.9-1.4-1.2-2.2c-.4-.8-.6-1.7-.7-2.7-.1-.9 0-1.9.2-2.9s.7-2.1 1.5-3.1c.6-.9 1.2-1.5 1.8-1.9.7-.5 1.3-.8 2-.9.5-.1 1-.1 1.5 0 .2 0 .3.1.5.1.6.2 1.2.5 1.7 1 .8.7 1.4 1.4 1.8 2.2.3.8.5 1.6.5 2.4 0 .7-.1 1.4-.2 2l.2-.2.9-.6c.4-.1.8-.2 1.2-.2.1 0 .2 0 .4.1.4.1.8.3 1.2.6.6.5 1 1.2 1.2 1.9.2.7.2 1.4 0 2.1-.1.7-.3 1.3-.6 2-.3.6-.6 1.2-1 1.7-.5.7-1.1 1.3-1.7 1.9-.7.6-1.5 1-2.4 1.2-.8.4-1.7.4-2.8.2zm2.9-9c-.1.3-.2.5-.3.8-.3.6-.5 1.1-.8 1.6h.2c.2 0 .3 0 .5-.1s.3-.2.5-.5.2-.5.2-.5V46c-.1-.2-.1-.4-.2-.6-.1 0-.1-.1-.1-.2zm-4.9-2.3l-.1.1c-.1.1-.1.2-.1.3 0 .2.1.4.2.7.1.2.2.4.3.5.1-.3.2-.6.2-.8.1-.5-.1-.6-.2-.7-.1 0-.1 0-.3-.1.1 0 0 0 0 0zM54.9 39.6c-.2 0-.3-.1-.5-.1-.5-.2-.9-.5-1.2-.9-.3-.4-.6-1.1-.9-2.1-.3-.9-.6-2-1-3.1-.3-1.2-.7-2.4-1-3.8-.3-1.3-.6-2.6-.9-3.8-.3-1.2-.5-2.3-.7-3.2-.2-.9-.3-1.6-.3-2.1 0-.4 0-.9.3-1.3.1-.2.4-.4.8-.7l2.2-1.6c.5-.4 1.1-.6 1.7-.7h.9c.2 0 .4.1.5.1.4.1.8.4 1.2.6.3.2.7.5 1 .8l5.7 4.8c1.5 1.3 2.7 2.3 3.6 3.1.9.8 1.6 1.4 2 1.8l1 1c.4.6.4 1.2.3 1.5-.1.4-.4.7-.8 1l-1.2.8c-.8.6-1.5.9-2.1 1.1-.5.1-1 .1-1.5.1-.2 0-.4-.1-.6-.1-.5-.2-1.1-.5-1.6-1l-.6-.6-2.4 1.8 1.1 2.8c.3.8 0 1.6-.7 2.1l-1.2.8c-.3.2-.6.4-1 .6-.4.2-.8.3-1.3.3h-.8zM56.6 27l.3-.2-.6-.6.3.8z"/><path class="st0" d="M69.9 29.9c-.2 0-.4-.1-.6-.2-.5-.2-.8-.5-1.2-.9-.3-.3-.5-.7-.7-1.2-.1-.3-.2-.6-.4-1.1-.2-.5-.4-1.2-.6-2-.3-.8-.6-1.9-1-3.2l-1.6-4.8c-.4-1.3.2-2.1.9-2.4l1-.4c.6-.3 1.1-.4 1.6-.5h1c.1 0 .3.1.4.1.1 0 .2.1.2.1.2-.4.4-.7.6-1 .3-.4.7-.7 1-1 .4-.3.7-.5 1.1-.6.4-.2.9-.3 1.4-.3h1c.2 0 .4.1.6.1.5.2 1 .5 1.4.9.4.4.8.9 1 1.6.2.6.4 1.1.4 1.7 0 .6 0 1.2-.2 1.7-.2.6-.5 1.1-.9 1.6s-.9.8-1.5 1.1c-.1.1-.3.1-.4.2-.2.1-.4.1-.5.2-.2.1-.5.1-.7 0-.6-.1-.9-.4-1.1-.8-.1-.2-.2-.5-.3-.7 0-.1-.1-.2-.1-.3 0 .4.1 1.2.5 2.5.2.6.4 1.2.6 1.9l.6 2c.2.6.4 1.2.6 1.7.2.5.3.8.3.9.2.5.2 1-.1 1.5-.2.3-.5.6-.9.7l-.9.4c-.7.3-1.2.4-1.7.5-.3.1-.6.1-.8 0zM83.8 24.9c-.7-.1-1.3-.3-1.9-.6-.9-.4-1.6-1.1-2.3-1.9-.6-.8-1.1-2-1.4-3.4-.1-.5-.2-1.1-.2-1.8s0-1.5.1-2.2c.1-.8.3-1.6.6-2.4.3-.8.7-1.7 1.3-2.4.6-.8 1.3-1.4 2.2-2 .9-.6 2-1 3.3-1.3 1.1-.2 2-.3 2.8-.2h.4c.7.1 1.3.3 1.8.6.6.4 1.1.9 1.5 1.5.3.6.6 1.2.7 1.9.2 1 .1 2-.2 2.8-.3.8-.7 1.5-1.3 2.1-.5.5-1 1-1.6 1.3h.9c.2 0 .4.1.6.2.4.1.8.4 1.1.7.4.4.7.9.8 1.5.1.8 0 1.5-.4 2.2-.3.6-.8 1.1-1.4 1.6-.6.4-1.2.7-1.9 1-.7.3-1.3.5-2 .6-.9.2-1.8.3-2.7.2h-.8zm2-6.1c.1.1.3.2.5.2h.7c.4-.1.5-.2.5-.2.1-.1.2-.2.3-.4.1-.2.2-.4.3-.5 0-.1.1-.1.1-.2-.3.1-.5.2-.8.3-.6.3-1.2.5-1.8.6.1.1.1.2.2.2zm.1-6h-.2c-.2 0-.3.1-.3.2-.1.2-.3.4-.3.6-.1.2-.1.4-.1.6.3-.1.5-.3.8-.5.4-.3.4-.5.3-.6-.1-.1-.1-.2-.2-.3zM101.1 22.8c-1.1-.2-2-.5-2.5-1.1-.4-.5-.9-1.3-.7-2.6 0-.4.2-1 .3-1.9.2-.9.4-1.9.6-3 .2-1.1.5-2.3.8-3.5.3-1.2.5-2.4.8-3.5.2-1.1.4-2 .6-2.8.2-.8.3-1.3.3-1.6.1-.9.8-1.4 1.8-1.4l1.5.2h.4c1.3.2 2.1.6 2.6 1.4.5.7.6 1.7.4 2.8 0 .2-.1.7-.3 1.6-.1.6-.2 1.2-.4 1.9l2.6.3c.1-.4.2-.9.3-1.3.2-.7.3-1.4.4-2 .1-.6.2-1.2.3-1.6.1-.4.1-.7.2-.9.1-.9.8-1.4 1.8-1.4l1.5.1h.3c1.3.2 2.2.6 2.6 1.4.5.7.6 1.7.4 2.8 0 .1-.1.4-.2.9s-.2 1.1-.4 1.8l-2.6 12.2c-.1.5-.2.9-.2 1-.1.3-.2.6-.5.8-.2.2-.6.4-1.3.4l-1.5-.1h-.4c-1.1-.2-2-.5-2.5-1.1-.6-.7-.8-1.6-.7-2.6.1-.4.2-1.1.4-2.2l.5-2.2-2.6-.3-1.3 6.3c-.1.4-.3.7-.5.9-.2.2-.6.4-1.2.3l-1.5-.2-.1.2zM123 27.4c-.7-.1-1.3-.3-2-.5-.8-.3-1.6-.7-2.4-1.2-.8-.5-1.4-1.2-1.9-2s-.8-1.8-.9-2.8c-.1-1.1.1-2.3.6-3.6.2-.5.4-1 .8-1.6.3-.6.7-1.3 1.2-1.9.5-.6 1.1-1.2 1.7-1.8.7-.6 1.5-1 2.4-1.4.9-.3 1.9-.5 2.9-.6.4 0 .9 0 1.3.1.7.1 1.4.3 2.1.5 1 .4 1.8.8 2.5 1.3s1.1 1.1 1.5 1.7c.3.6.5 1.3.5 2s-.1 1.3-.4 2c-.4 1-.9 1.7-1.6 2.3-.6.5-1.4.9-2.2 1.1-.7.2-1.3.3-2 .3.1 0 .2.1.3.2.3.2.6.4.8.8.3.3.5.7.6 1.2.1.5.1 1.1-.1 1.7-.3.7-.8 1.3-1.5 1.7-.6.3-1.3.5-2 .6-.6 0-1.2 0-1.8-.1h-.4zm-.2-6.3c0 .2.1.3.3.4.1.1.3.3.6.4.1 0 .3.1.4.1h.2c.2 0 .3-.1.4-.1.2-.1.4-.2.5-.3.1 0 .1-.1.2-.1-.2 0-.8-.1-.8-.1-.7-.1-1.3-.2-1.8-.4v.1zm3-5.2h-.2c-.2.1-.4.2-.6.4l-.4.4h.9c.5-.1.6-.3.6-.4V16s-.1 0-.2-.1h-.1zM131.6 31.3c-.2 0-.5-.1-.7-.2l-.8-.5c-.6-.4-1-.7-1.3-1.1-.3-.4-.6-.9-.7-1.3-.1-.5-.1-1 .1-1.5.1-.4.3-.8.6-1.2.2-.2.4-.6.7-1 .3-.4.7-1 1.3-1.7.5-.7 2.9-3.8 2.9-3.8l2.2-2.9c.7-.9 1.4-1 1.8-.9.2 0 .4.1.6.2l.9.5c.5.3.9.7 1.3 1 .3.4.6.8.7 1.2 0 .1 0 .2.1.2.4-.1.8-.1 1.1-.1h.6c.3 0 .5.1.8.2.4.1.8.3 1.1.5.4.2.8.6 1.1.9.3.4.5.8.7 1.3.2.5.2 1.1.1 1.7-.1.6-.3 1.2-.7 1.8-.3.5-.7 1-1.2 1.3-.5.4-1 .7-1.5.9-.6.2-1.2.3-1.8.2h-.2c-.5-.1-1-.3-1.5-.5-.1-.1-.2-.2-.4-.2-.1-.1-.3-.2-.4-.3-.2-.2-.3-.3-.4-.5-.3-.4-.3-1 0-1.4.1-.2.3-.4.4-.6.1-.1.1-.2.2-.3-.4.2-.9.7-1.8 1.9-.4.5-.8 1-1.2 1.6l-1.3 1.7-1.1 1.5c-.3.4-.5.7-.6.8-.3.5-.8.7-1.3.8-.2-.2-.3-.2-.4-.2zM146.5 42.1c-.3 0-.6-.1-.9-.2-.6-.2-1.3-.5-1.9-.9-.6-.4-1.1-.8-1.6-1.2-.6-.6-1.2-1.3-1.7-2-.5-.8-.8-1.7-.9-2.6-.1-.9 0-1.9.3-3 .4-1 1-2.1 2-3.1.4-.4.8-.8 1.3-1.2.6-.5 1.2-.9 1.9-1.3s1.5-.7 2.3-1c.9-.3 1.8-.4 2.7-.4.3 0 .6 0 .9.1.7.1 1.3.3 2 .5 1 .4 1.9 1 2.9 1.9.8.7 1.3 1.4 1.7 2.1.4.7.6 1.5.6 2.2 0 .7-.1 1.4-.4 2-.3.6-.7 1.2-1.2 1.7-.7.7-1.5 1.3-2.4 1.5-.8.2-1.6.3-2.4.2h-.2c-.6-.1-1.2-.2-1.8-.5.1.1.1.2.2.3.2.3.4.6.5 1 .1.4.1.8 0 1.3s-.4 1-.8 1.5c-.6.6-1.3.9-2 1-.4.1-.8.1-1.1.1zm-.4-7.2c0 .2 0 .3.1.5s.2.4.4.6c.3.3.4.3.4.3h.5c.2 0 .4-.1.6-.1h.2c-.2-.1-.5-.3-.7-.4-.6-.4-1.1-.7-1.5-1.1v.2zM150.4 47.6c-.3 0-.6-.1-.9-.2-.6-.2-1.1-.6-1.5-1.2-.7-.9-.9-1.9-.6-2.7.3-.7.8-1.3 1.5-1.8.4-.3.8-.5 1.2-.7.5-.2.9-.3 1.4-.3h.5c.4.1.7.2 1 .3.2.1.5.3.7.5-.1-.5-.1-1 0-1.5.1-.4.4-.8.7-1.2.3-.3.6-.6 1.1-.9.2-.1.3-.2.5-.3.2-.1.4-.3.7-.4.2-.1.5-.3.9-.6.4-.2.9-.6 1.5-.9l2.1-1.3c.9-.6 1.9-1.2 3.1-1.9.4-.3.9-.6 1.5-.5.5.1.8.4 1 .7l1 1.3c.8 1 1.1 1.9 1 2.8-.1.9-.5 1.6-1.2 2.1-.3.2-.7.5-1.2.8-.5.3-1 .6-1.7.9-.6.3-1.3.6-1.9 1l-2 1-3.4 1.6c-.4.2-.8.3-1.1.2h-.1c-.4-.1-.7-.3-1-.6.1.3.1.7 0 1-.2.7-.7 1.4-1.4 2-.3.2-.7.4-1.1.6-.5.2-.9.3-1.4.4-.4-.1-.6-.1-.9-.2z"/><g><path class="st0" d="M21.1 70.5c-.5-.1-.9-.2-1.1-.3-1-.4-1.2-1.2-1.2-1.5 0-.4 0-.9.3-1.7.3-.8.5-1.4.8-2 .3-.6.7-1 1.1-1.3.5-.3 1-.5 1.6-.5.4 0 .8 0 1.2.1.1 0 .3.1.5.1l.3.1c.1 0 .4.1.7.2.3.1.7.2 1.2.3l2.2.6c-.6-.4-1.4-.8-2.3-1.3l-3.7-2.1c-.4-.3-.7-.7-.8-1.2v-.9c0-.2.1-.5.2-.8.1-.3.1-.5.2-.7.2-.7.5-1.4.7-1.9.3-.6.6-1 1-1.4.4-.3.9-.6 1.5-.7.5-.1 1-.1 1.6 0 .3 0 .6.1 1 .2s1.1.3 1.9.5c.5.1 1.1.3 1.8.5-.2-.1-5.8-3.6-5.8-3.6-.4-.2-.9-.6-1-1.2-.1-.4-.1-.9.1-1.7.1-.2.2-.5.3-.9.2-.4.4-.9.7-1.3.3-.4.8-.8 1.2-1 .5-.2 1-.3 1.5-.2.2 0 .4.1.5.2.3.1.8.4 1.4.8.5.4 1.2.8 1.8 1.3.7.5 1.4 1 2.2 1.6l2.3 1.8c.8.6 1.6 1.2 2.3 1.8.7.6 1.4 1.1 2 1.6.6.5 1.1.9 1.5 1.3l.8.8c.3.4.5.9.5 1.4 0 .3 0 .7-.1 1l-.8 2.5c-.2.6-.5 1.1-.9 1.5-.4.3-.8.6-1.3.7-.4.1-.9.2-1.4.1-.3 0-.6-.1-.9-.1-.2 0-.3-.1-.5-.1l-3.3-1h.1c.9.5 1.7 1 2.4 1.5s1.3.9 1.8 1.2c.7.5 1 .8 1.2.9.3.4.5.8.6 1.4 0 .4 0 .7-.2 1l-.8 2.4c-.2.6-.5 1.1-.9 1.4-.4.3-.8.5-1.3.7-.4.1-.9.1-1.4.1-.4 0-.8-.1-1.2-.1-2.9-.4-5.3-.8-7.2-1.1-1.9-.3-3.4-.5-4.5-.7-1.2-.2-2-.3-2.5-.5l.1.2zM43.1 52.8c-1-.2-2.1-.8-3.2-1.7-.4-.3-.8-.7-1.3-1.2s-1-1.1-1.5-1.8-.9-1.4-1.2-2.2c-.4-.8-.6-1.7-.7-2.7-.1-.9 0-1.9.2-2.9s.7-2.1 1.5-3.1c.6-.9 1.2-1.5 1.8-1.9.7-.5 1.3-.8 2-.9.5-.1 1-.1 1.5 0 .2 0 .3.1.5.1.6.2 1.2.5 1.7 1 .8.7 1.4 1.4 1.8 2.2.3.8.5 1.6.5 2.4 0 .7-.1 1.4-.2 2l.2-.2.9-.6c.4-.1.8-.2 1.2-.2.1 0 .2 0 .4.1.4.1.8.3 1.2.6.6.5 1 1.2 1.2 1.9.2.7.2 1.4 0 2.1-.1.7-.3 1.3-.6 2-.3.6-.6 1.2-1 1.7-.5.7-1.1 1.3-1.7 1.9-.7.6-1.5 1-2.4 1.2-.7.4-1.7.4-2.8.2zm2.9-9c-.1.3-.2.5-.3.8-.3.6-.5 1.1-.8 1.6h.2c.2 0 .3 0 .5-.1s.3-.2.5-.5.2-.5.2-.5v-.5c-.1-.2-.1-.4-.2-.6 0-.1 0-.1-.1-.2zm-4.9-2.3l-.1.1c-.1.1-.1.2-.1.3 0 .2.1.4.2.7.1.2.2.4.3.5.1-.3.2-.6.2-.8.1-.5-.1-.6-.2-.7 0 0-.1-.1-.3-.1.1 0 .1 0 0 0zM55.8 38.1c-.2 0-.3-.1-.5-.1-.5-.2-.9-.5-1.2-.9-.3-.4-.6-1.1-.9-2.1-.3-.9-.6-2-1-3.1-.3-1.2-.7-2.4-1-3.8-.3-1.3-.6-2.6-.9-3.8-.3-1.2-.5-2.3-.7-3.2-.2-.9-.3-1.6-.3-2.1 0-.4 0-.9.3-1.3.1-.2.4-.4.8-.7l2.2-1.6c.5-.4 1.1-.6 1.7-.7h.9c.2 0 .4.1.5.1.4.1.8.4 1.2.6.3.2.7.5 1 .8l5.7 4.8c1.5 1.3 2.7 2.3 3.6 3.1.9.8 1.6 1.4 2 1.8l1 1c.4.6.4 1.2.3 1.5-.1.4-.4.7-.8 1l-1.2.8c-.8.6-1.5.9-2.1 1.1-.5.1-1 .1-1.5.1-.2 0-.4-.1-.6-.1-.5-.2-1.1-.5-1.6-1l-.6-.6-2.4 1.7 1.1 2.8c.3.8 0 1.6-.7 2.1l-1.2.9c-.3.2-.6.4-1 .6-.4.2-.8.3-1.3.3-.3.1-.5.1-.8 0zm1.6-12.5l.3-.2-.6-.6.3.8z"/><path class="st0" d="M70.7 28.5c-.2 0-.4-.1-.6-.2-.5-.2-.8-.5-1.2-.9-.3-.3-.5-.7-.7-1.2-.1-.3-.2-.6-.4-1.1-.2-.5-.4-1.2-.6-2-.3-.8-.6-1.9-1-3.2L64.6 15c-.4-1.3.2-2.1.9-2.4l1-.4c.6-.3 1.1-.4 1.6-.5h1c.1 0 .3.1.4.1.1 0 .2.1.2.1.2-.4.4-.7.6-1 .3-.4.7-.7 1-1 .4-.3.7-.5 1.1-.6.5-.2 1-.3 1.5-.3h1c.2 0 .4.1.6.1.5.2 1 .5 1.4.9.4.4.8.9 1 1.6.2.6.4 1.1.4 1.7 0 .6 0 1.2-.2 1.7-.2.6-.5 1.1-.9 1.6s-.9.8-1.5 1.1c-.1.1-.3.1-.4.2-.2.1-.3.1-.5.2s-.5.1-.7 0c-.6-.1-.9-.4-1.1-.8-.1-.2-.2-.5-.3-.7 0-.1-.1-.2-.1-.3 0 .4.1 1.2.5 2.5.2.6.4 1.2.6 1.9l.6 2c.2.6.4 1.2.6 1.7.2.5.3.8.3.9.2.5.2 1-.1 1.5-.2.3-.5.6-.9.7l-.9.5c-.7.3-1.2.4-1.7.5h-.9zM84.6 23.4c-.7-.1-1.3-.3-1.9-.6-.9-.4-1.6-1.1-2.3-1.9-.6-.8-1.1-2-1.4-3.4 0-.5 0-1.1-.1-1.8 0-.7 0-1.5.1-2.2.1-.8.3-1.6.6-2.4.3-.8.7-1.7 1.3-2.4.6-.8 1.3-1.4 2.2-2 .9-.6 2-1 3.3-1.3 1.1-.2 2-.3 2.8-.2h.4c.7.1 1.3.3 1.8.6.6.4 1.1.9 1.5 1.5.3.6.6 1.2.7 1.9.2 1 .1 2-.2 2.8-.3.8-.7 1.5-1.3 2.1-.5.5-1 1-1.6 1.3h.9c.2 0 .4.1.6.2.4.1.8.4 1.1.7.4.4.7.9.8 1.5.1.8 0 1.5-.4 2.2-.3.6-.8 1.1-1.4 1.6-.6.4-1.2.7-1.9 1-.7.3-1.3.5-2 .6-.9.2-1.8.3-2.7.2-.3.1-.6 0-.9 0zm2-6.1c.1.1.3.2.5.2h.7c.4-.1.5-.2.5-.2.1-.1.2-.2.3-.4.1-.2.2-.4.3-.5 0-.1.1-.1.1-.2-.3.1-.5.2-.8.3-.6.3-1.2.5-1.8.6l.2.2zm.2-5.9h-.2c-.2 0-.3.1-.3.2-.1.2-.3.4-.3.6-.1.2-.1.4-.1.6.3-.1.5-.3.8-.5.4-.3.4-.5.3-.6-.1-.2-.1-.3-.2-.3zM101.9 21.4c-1.1-.2-2-.5-2.5-1.1-.4-.5-.9-1.3-.7-2.6 0-.4.2-1 .3-1.9.2-.9.4-1.9.6-3 .2-1.1.5-2.3.8-3.5.3-1.2.5-2.4.8-3.5.2-1.1.4-2 .6-2.8.2-.8.3-1.3.3-1.6.1-.9.8-1.4 1.8-1.4l1.5.2h.4c1.3.2 2.1.6 2.6 1.4.5.7.6 1.7.4 2.8 0 .2-.1.7-.3 1.6-.1.6-.2 1.2-.4 1.9l2.6.3c.1-.4.2-.9.3-1.3.2-.7.3-1.4.4-2 .1-.6.2-1.2.3-1.6.1-.4.1-.7.2-.9.1-.9.8-1.4 1.8-1.4l1.5.1h.3c1.3.2 2.2.6 2.6 1.4.5.7.6 1.7.4 2.8 0 .1-.1.4-.2.9s-.2 1.1-.4 1.8l-2.6 12.2c-.1.5-.2.9-.2 1-.1.3-.2.6-.5.8-.2.2-.6.4-1.3.4l-1.5-.1h-.4c-1.1-.2-2-.5-2.5-1.1-.6-.7-.8-1.6-.7-2.6.1-.4.2-1.1.4-2.2l.5-2.2-2.6-.3-1.3 6.3c-.1.4-.3.7-.5.9-.2.2-.6.4-1.2.3l-1.5-.2-.1.2zM123.9 26c-.7-.1-1.3-.3-2-.5-.8-.3-1.6-.7-2.4-1.2-.8-.5-1.4-1.2-1.9-2s-.8-1.8-.9-2.8c-.1-1.1.1-2.3.6-3.6.2-.5.4-1 .8-1.6.3-.6.7-1.3 1.2-1.9.5-.6 1.1-1.2 1.7-1.8.7-.6 1.5-1 2.4-1.4.9-.3 1.9-.5 2.9-.6.4 0 .9 0 1.3.1.7.1 1.4.3 2.1.5 1 .4 1.8.8 2.5 1.3s1.1 1.1 1.5 1.7c.3.6.5 1.3.5 2s-.1 1.3-.4 2c-.4 1-.9 1.7-1.6 2.3-.6.5-1.4.9-2.2 1.1-.7.2-1.3.3-2 .3.1 0 .2.1.3.2.3.2.6.4.8.8.3.3.5.7.6 1.2.1.5.1 1.1-.1 1.7-.3.7-.8 1.3-1.5 1.7-.6.3-1.3.5-2 .6-.6 0-1.2 0-1.8-.1h-.4zm-.2-6.4c0 .2.1.3.3.4.1.1.3.3.6.4.1 0 .3.1.4.1h.2c.2 0 .3-.1.4-.1.2-.1.4-.2.5-.3.1 0 .1-.1.2-.1-.2 0-.8-.1-.8-.1-.7-.1-1.3-.2-1.8-.4-.1 0-.1.1 0 .1zm2.9-5.1h-.2c-.2.1-.4.2-.6.4l-.4.4h.9c.5-.1.6-.3.6-.4v-.3s-.1 0-.2-.1h-.1zM132.4 29.9c-.2 0-.5-.1-.7-.2l-.8-.5c-.6-.4-1-.7-1.3-1.1-.3-.4-.6-.9-.7-1.3-.1-.5-.1-1 .1-1.5.1-.4.3-.8.6-1.2.2-.2.4-.6.7-1 .3-.4.7-1 1.3-1.7.5-.7 2.9-3.8 2.9-3.8l2.2-2.9c.7-.9 1.4-1 1.8-.9.2 0 .4.1.6.2l.9.5c.5.3.9.7 1.3 1 .3.4.6.8.7 1.2 0 .1 0 .2.1.2.4-.1.8-.1 1.1-.1h.6c.3 0 .5.1.8.2.4.1.8.3 1.1.5.4.2.8.6 1.1.9.3.4.5.8.7 1.3.2.5.2 1.1.1 1.7-.1.6-.3 1.2-.7 1.8-.3.5-.7 1-1.2 1.3-.5.4-1 .7-1.5.9-.6.2-1.2.3-1.8.2h-.2c-.5-.1-1-.3-1.5-.5-.1-.1-.2-.2-.4-.2-.1-.1-.3-.2-.4-.3-.2-.2-.3-.3-.4-.5-.3-.4-.3-1 0-1.4.1-.2.3-.4.4-.6.1-.1.1-.2.2-.3-.4.2-.9.7-1.8 1.9-.4.5-.8 1-1.2 1.6l-1.3 1.7-1.1 1.5c-.3.4-.5.7-.6.8-.3.5-.8.7-1.3.8-.1-.2-.3-.2-.4-.2zM147.3 40.6c-.3 0-.6-.1-.9-.2-.6-.2-1.3-.5-1.9-.9-.6-.4-1.1-.8-1.6-1.2-.6-.6-1.2-1.3-1.7-2-.5-.8-.8-1.7-.9-2.6-.1-.9 0-1.9.3-3 .4-1 1-2.1 2-3.1.4-.4.8-.8 1.3-1.2.6-.5 1.2-.9 1.9-1.3s1.5-.7 2.3-1c.9-.3 1.8-.4 2.7-.4.3 0 .6 0 .9.1.7.1 1.3.3 2 .5 1 .4 1.9 1 2.9 1.9.8.7 1.3 1.4 1.7 2.1.4.7.6 1.5.6 2.2 0 .7-.1 1.4-.4 2-.3.6-.7 1.2-1.2 1.7-.7.7-1.5 1.3-2.4 1.5-.8.2-1.6.3-2.4.2h-.2c-.6-.1-1.2-.2-1.8-.5.1.1.1.2.2.3.2.3.4.6.5 1 .1.4.1.8 0 1.3s-.4 1-.8 1.5c-.6.6-1.3.9-2 1-.3.2-.7.2-1.1.1zm-.4-7.1c0 .2 0 .3.1.5s.2.4.4.6c.3.3.4.3.4.3h.5c.2 0 .4-.1.6-.1h.2c-.2-.1-.5-.3-.7-.4-.6-.4-1.1-.7-1.5-1.1v.2zM151.2 46.2c-.3 0-.6-.1-.9-.2-.6-.2-1.1-.6-1.5-1.2-.7-.9-.9-1.9-.6-2.7.3-.7.8-1.3 1.5-1.8.4-.3.8-.5 1.2-.7.5-.2.9-.3 1.4-.3h.5c.4.1.7.2 1 .3.2.1.5.3.7.5-.1-.5-.1-1 0-1.5.1-.4.4-.8.7-1.2.3-.3.6-.6 1.1-.9.2-.1.3-.2.5-.3.2-.1.4-.3.7-.4.2-.1.5-.3.9-.6.4-.2.9-.6 1.5-.9L162 33c.9-.6 1.9-1.2 3.1-1.9.4-.3.9-.6 1.5-.5.5.1.8.4 1 .7l1 1.3c.8 1 1.1 1.9 1 2.8-.1.9-.5 1.6-1.2 2.1-.3.2-.7.5-1.2.8-.5.3-1 .6-1.7.9-.6.3-1.3.6-1.9 1l-2 1-3.4 1.6c-.4.2-.8.3-1.1.2h-.1c-.4-.1-.7-.3-1-.6.1.3.1.7 0 1-.2.7-.7 1.4-1.4 2-.3.2-.7.4-1.1.6-.5.2-.9.3-1.4.4-.3-.2-.6-.2-.9-.2z"/></g><g><path class="st1" d="M38.9 58.4c-.8-.5-1.5-1-2.2-1.4-.6-.4-1.2-.8-1.7-1.1-.5-.3-1.1-.7-1.6-1-.5-.3-1.1-.7-1.8-1.1-.7-.4-1.4-.9-2.2-1.4-.8-.5-1.9-1.1-3-1.9-.3-.2-.5-.4-.5-.5-.1-.2 0-.5.2-1 .1-.2.2-.5.3-.8.1-.4.3-.7.6-1 .2-.3.5-.6.9-.7.3-.2.8-.2 1.2 0 .3.1.7.3 1.2.7.5.3 1.1.7 1.8 1.2s1.4 1 2.2 1.6c.8.6 1.6 1.2 2.3 1.8s1.5 1.2 2.3 1.8c.7.6 1.4 1.1 2 1.6.6.5 1.1.9 1.5 1.3.4.4.6.6.8.7.1.2.2.4.2.6 0 .2 0 .4-.1.6l-.8 2.4c-.1.4-.3.8-.6 1-.3.2-.6.4-.9.5-.3.1-.7.1-1 .1-.4 0-.7-.1-1.1-.2l-11.6-3.4c.7.4 1.5.9 2.4 1.4.9.5 1.8 1 2.7 1.6.9.5 1.8 1.1 2.7 1.6.9.5 1.7 1 2.4 1.5s1.3.9 1.8 1.2c.5.3.8.6.9.7.2.2.2.4.2.6 0 .2 0 .4-.1.6l-.8 2.4c-.1.4-.3.7-.6 1-.2.2-.5.4-.9.4-.3.1-.7.1-1.1.1-.4 0-.8-.1-1.1-.1-2.9-.4-5.4-.8-7.2-1.1-1.9-.3-3.4-.5-4.5-.7s-2-.3-2.5-.4c-.5-.1-.9-.2-1.1-.3-.3-.1-.4-.3-.5-.5 0-.2.1-.6.2-1.2.2-.7.5-1.3.7-1.8.3-.4.5-.8.8-1 .3-.2.7-.3 1.1-.4.4 0 .8 0 1.3.2.1 0 .2.1.3.1.1 0 .3.1.6.2s.7.2 1.2.4c.5.1 1.2.3 2 .6s1.9.6 3.1.9c1.3.4 2.8.8 4.5 1.3-1-.6-1.7-1.1-2.3-1.5-.6-.4-1.1-.7-1.5-1-.4-.3-.9-.6-1.3-.8-.4-.3-.9-.6-1.6-.9-.6-.4-1.4-.8-2.4-1.4-1-.5-2.2-1.3-3.7-2.1-.1-.1-.2-.2-.2-.3v-.5c0-.2.1-.4.1-.7.1-.2.1-.5.2-.7.2-.7.4-1.3.7-1.7.2-.4.5-.8.8-1 .3-.2.6-.4 1-.5.4-.1.8-.1 1.3 0 .2 0 .5.1.9.2s1 .3 1.9.5c.8.2 2 .6 3.5 1.1 1.4.2 3.4.8 5.7 1.6zM49.3 48.9c-.4.6-1 1.2-1.6 1.7-.6.5-1.3.8-2 1-.7.2-1.5.2-2.4 0-.9-.2-1.8-.7-2.8-1.5-.4-.3-.8-.7-1.2-1.1-.5-.5-.9-1-1.3-1.6-.4-.6-.8-1.3-1.1-2-.3-.7-.5-1.5-.6-2.3-.1-.8 0-1.7.2-2.6.2-.9.7-1.8 1.3-2.7.5-.7 1.1-1.3 1.6-1.7.5-.4 1.1-.6 1.6-.7.5-.1 1 0 1.5.1.5.2 1 .4 1.4.8.7.5 1.1 1.1 1.4 1.8.3.6.4 1.3.4 2s-.1 1.3-.3 2c-.2.7-.4 1.3-.7 1.9-.3.6-.5 1.1-.8 1.5-.3.4-.5.8-.7 1 .3.2.6.4.9.5.3.1.6.2.9.2.3 0 .6-.1.9-.2.3-.2.6-.4.9-.8.3-.4.4-.7.4-1 0-.3 0-.6-.1-.8-.1-.3-.1-.5-.2-.7-.1-.2 0-.4.1-.5 0-.1.2-.2.3-.3.2-.2.4-.3.6-.4.2-.1.5-.1.8-.1.3 0 .6.2.9.4.4.3.7.8.8 1.3.1.5.1 1 0 1.6-.1.6-.3 1.1-.6 1.7.1.5-.2 1.1-.5 1.5zm-9.1-8c-.2.3-.3.7-.3 1s.1.7.3 1.1c.2.4.4.7.7 1.1.3.3.5.7.8.9.6-.9 1-1.8 1.1-2.5.1-.8-.1-1.4-.6-1.8-.3-.2-.6-.4-1-.4-.5.1-.8.2-1 .6zM53.2 16.3c.4-.3.7-.4 1.1-.5.3 0 .7 0 1 .1.3.1.7.3 1 .5.3.2.6.5.9.7 2.3 2 4.2 3.6 5.7 4.8 1.5 1.3 2.7 2.3 3.6 3.1.9.8 1.6 1.4 2 1.8.4.4.7.7.8.9.1.2.2.4.1.5 0 .1-.2.3-.4.4l-1.2.8c-.7.5-1.2.8-1.7.9-.5.1-1 .1-1.4 0-.4-.1-.8-.4-1.2-.8-.4-.4-.8-.8-1.2-1.3l-4 2.8 1.4 3.6c.1.3 0 .5-.3.7l-1.2.9c-.2.2-.5.3-.8.5-.3.1-.6.2-.9.2-.3 0-.6 0-.8-.1-.3-.1-.5-.3-.7-.5-.2-.3-.5-.9-.8-1.8s-.6-1.9-1-3.1c-.3-1.2-.7-2.4-1-3.7-.3-1.3-.6-2.6-.9-3.8-.3-1.2-.5-2.2-.7-3.2-.2-.9-.3-1.6-.3-2 0-.3 0-.5.1-.6.1-.1.2-.3.5-.5l2.3-1.3zm3.7 11l2.6-1.9-5.1-5.2 2.5 7.1zM75.3 16.7c-.1 0-.2.1-.4.1-.1 0-.3.1-.4.1h-.3c-.1 0-.2 0-.2-.1-.1-.2-.2-.4-.2-.6-.1-.2-.1-.4-.2-.6-.2-.4-.3-.6-.5-.8-.2-.2-.5-.2-.8-.1-.5.2-.8.7-.8 1.4-.1.7.1 1.8.5 3 .2.6.4 1.2.6 1.9.2.7.4 1.4.6 2 .2.7.4 1.2.6 1.7.2.5.3.8.3 1 .1.2.1.3 0 .5l-.3.3-.9.5c-.5.2-1 .4-1.4.4-.4 0-.7 0-1-.1-.3-.1-.5-.3-.7-.6-.2-.3-.4-.6-.5-1-.1-.3-.2-.6-.4-1.1-.2-.5-.4-1.1-.6-2-.3-.8-.6-1.9-1-3.2-.4-1.3-.9-2.9-1.6-4.8-.2-.5-.1-.8.2-1l1-.4c.5-.2.9-.3 1.3-.4.4 0 .7 0 1 .1.3.1.5.2.7.4.2.2.4.4.5.6 0-.5.2-.9.3-1.3.2-.4.4-.8.6-1.1.2-.3.5-.6.8-.8.3-.2.6-.4.9-.5.3-.1.7-.2 1.1-.3.4 0 .8 0 1.1.1.4.1.7.3 1 .6.3.3.6.7.8 1.2.2.5.3.9.3 1.4 0 .5 0 .9-.2 1.3-.1.4-.3.8-.6 1.1s-.7.9-1.2 1.1zM88 22.1c-.8.2-1.6.2-2.4.2-.8 0-1.6-.2-2.3-.6-.7-.4-1.3-.9-1.9-1.6-.5-.7-.9-1.7-1.2-2.9-.1-.4-.1-1-.2-1.6 0-.6 0-1.3.1-2s.3-1.4.5-2.2c.3-.7.6-1.4 1.1-2.1.5-.6 1.2-1.2 1.9-1.7.8-.5 1.8-.9 3-1.1.9-.2 1.8-.3 2.5-.2.7.1 1.3.3 1.7.5.5.3.9.7 1.2 1.2.3.4.5.9.6 1.5.2.8.1 1.6-.1 2.2-.2.6-.6 1.2-1 1.7-.5.5-1 .9-1.6 1.3-.6.4-1.2.7-1.8.9-.6.3-1.2.4-1.7.6-.5.1-.9.2-1.2.3.1.3.2.7.3 1 .2.3.4.6.6.8.2.2.5.4.9.5.4.1.8.1 1.2 0 .5-.1.8-.3 1.1-.5.2-.2.4-.4.5-.6l.3-.6c.1-.2.2-.3.4-.3h.5c.2 0 .5 0 .7.1.3.1.5.2.7.5.2.2.4.5.5.9.1.5 0 1-.2 1.4-.3.4-.6.8-1.1 1.2-.5.3-1 .6-1.6.9-.8 0-1.4.2-2 .3zm-1.6-11.8c-.4.1-.7.3-1 .6-.2.3-.4.6-.6 1-.1.4-.2.8-.2 1.2v1.2c1.1-.3 2-.6 2.6-1.1.6-.5.9-1.1.8-1.8-.1-.4-.2-.7-.5-.9-.3-.2-.6-.3-1.1-.2zM112.3 21.3c-1-.1-1.7-.4-2.1-.8-.4-.4-.5-1-.4-1.8.1-.4.2-1.1.4-2.1s.4-2.1.7-3.4l-4.9-.5-1.6 7.3c0 .1-.1.2-.2.3-.1.1-.2.1-.3.1l-1.5-.2c-1-.1-1.7-.4-2.1-.8-.4-.4-.5-1-.4-1.8 0-.4.2-1 .3-1.8.2-.9.4-1.8.6-2.9.2-1.1.5-2.3.8-3.5s.5-2.4.8-3.5c.2-1.1.4-2 .6-2.9.2-.8.3-1.4.3-1.7 0-.3.2-.4.5-.4l1.5.2c1.1.1 1.8.4 2.1.9.3.5.4 1.2.3 2.1 0 .1-.1.6-.3 1.5-.2.9-.4 1.9-.6 3.1l4.9.5c.2-.8.3-1.5.5-2.3.2-.7.3-1.4.4-2.1.1-.6.2-1.2.3-1.6.1-.5.2-.8.2-1 0-.3.2-.4.5-.4l1.5.1c1.1.1 1.8.4 2.1.9.3.5.4 1.2.3 2.1 0 .1-.1.4-.2.9s-.2 1.1-.4 1.8-.3 1.5-.5 2.4c-.2.9-.4 1.8-.6 2.8-.2.9-.4 1.9-.6 2.8-.2.9-.4 1.7-.5 2.4-.2.7-.3 1.3-.4 1.8-.1.5-.2.8-.2.9 0 .1-.1.2-.2.3-.1.1-.2.1-.3.1l-1.3.2zM122.3 24.4c-.8-.3-1.5-.6-2.1-1.1-.7-.4-1.2-1-1.6-1.7-.4-.7-.7-1.4-.7-2.3-.1-.9.1-1.9.6-3.1.2-.4.4-.9.7-1.5.3-.6.7-1.1 1.1-1.7.4-.6 1-1.1 1.6-1.6.6-.5 1.3-.9 2-1.2.8-.3 1.6-.5 2.5-.5.9 0 1.9.2 3.1.6.9.3 1.6.7 2.1 1.1.5.4.9.9 1.2 1.4.2.5.4 1 .3 1.5 0 .5-.1 1-.3 1.6-.3.8-.7 1.4-1.3 1.8-.5.4-1.1.7-1.8.9-.6.2-1.3.3-2 .3s-1.4-.1-2-.2c-.6-.1-1.2-.2-1.7-.4s-.9-.3-1.2-.4c-.1.3-.2.7-.2 1 0 .3 0 .7.1 1 .1.3.3.6.5.8s.6.5 1 .6.8.2 1.1.1c.3-.1.6-.1.8-.3l.6-.3c.2-.1.3-.1.5-.1.1 0 .2.1.4.2s.4.3.5.5c.2.2.3.5.4.8s0 .6-.1 1c-.2.5-.5.9-1 1.1-.4.2-1 .4-1.5.4-.6 0-1.2 0-1.8-.1-.6.2-1.3 0-1.8-.2zm4.9-10.9c-.4-.1-.7-.1-1.1 0-.4.1-.7.3-1 .6-.3.3-.6.6-.8.9-.2.4-.5.7-.7 1 1.1.4 2 .5 2.8.4.8-.1 1.3-.5 1.6-1.1.1-.3.1-.7 0-1-.1-.4-.4-.7-.8-.8zM141.3 24.1c-.1-.1-.2-.1-.3-.2-.1-.1-.2-.2-.3-.2-.1-.1-.2-.2-.2-.3-.1-.1-.1-.2 0-.2.1-.2.3-.4.4-.5.1-.2.2-.3.4-.5.2-.3.4-.6.4-.9 0-.3-.1-.5-.3-.7-.4-.3-1-.2-1.6.2-.7.4-1.4 1.1-2.2 2.2-.4.5-.8 1-1.2 1.6-.5.6-.9 1.2-1.3 1.7-.4.6-.8 1-1.1 1.5-.3.4-.5.7-.6.9-.1.2-.2.2-.4.2s-.3 0-.4-.1l-.8-.5c-.5-.3-.8-.6-1.1-.9-.2-.3-.4-.6-.4-.9-.1-.3 0-.6.1-.9.1-.3.3-.6.5-1 .2-.2.4-.6.7-1 .3-.4.7-1 1.3-1.7.5-.7 1.2-1.6 2.1-2.7.8-1.1 1.9-2.5 3.1-4.1.3-.4.6-.6.9-.4l.9.5c.4.3.8.5 1 .8.2.3.4.5.5.8.1.3.1.5 0 .8-.1.3-.1.5-.3.8.4-.2.8-.4 1.3-.5.4-.1.8-.1 1.2-.1.4 0 .7.1 1.1.2.3.1.6.2.9.4.3.2.6.4.8.7.2.3.4.6.5 1 .1.4.1.8 0 1.2-.1.4-.3.9-.6 1.3s-.6.8-1 1.1c-.4.3-.8.5-1.2.7-.4.1-.8.2-1.3.2-.7-.2-1.1-.3-1.5-.5zM143.7 37.4c-.6-.5-1.1-1.1-1.5-1.8-.4-.7-.7-1.4-.8-2.2-.1-.8 0-1.6.3-2.5.3-.9.9-1.7 1.8-2.6.3-.3.7-.7 1.2-1.1.5-.4 1.1-.8 1.7-1.1.6-.3 1.3-.6 2.1-.9.7-.2 1.5-.3 2.3-.3.8 0 1.6.2 2.5.5.8.3 1.7.9 2.5 1.7.7.6 1.2 1.3 1.5 1.9.3.6.5 1.2.5 1.7s-.1 1-.3 1.5c-.2.5-.5.9-.9 1.3-.6.6-1.2 1-1.9 1.2-.7.2-1.3.3-2 .2-.7-.1-1.3-.3-1.9-.5l-1.8-.9c-.5-.3-1-.7-1.4-1-.4-.3-.7-.6-.9-.8-.2.2-.5.5-.6.8-.2.3-.3.6-.3.9 0 .3 0 .6.1 1 .1.3.3.7.7 1 .3.3.7.5 1 .6.3.1.6.1.8.1.3 0 .5-.1.7-.1.2 0 .4 0 .5.2.1.1.2.2.3.4.1.2.2.4.3.7.1.3.1.6 0 .9-.1.3-.2.6-.5.9-.4.4-.8.6-1.3.7-.5.1-1 0-1.6-.2-.5-.2-1.1-.4-1.6-.8-.6-.6-1.1-1-1.5-1.4zm8.9-8.3c-.3-.3-.6-.4-1-.4s-.7 0-1.1.1c-.4.1-.8.3-1.1.5-.4.2-.7.5-1 .7.8.7 1.6 1.2 2.4 1.4.8.2 1.4.1 1.9-.4.3-.3.4-.6.5-.9-.1-.3-.3-.6-.6-1zM154.3 41.4c.5.6.6 1.1.5 1.6-.1.5-.4.9-1 1.3-.2.2-.5.3-.8.5-.3.2-.7.2-1 .3-.4 0-.7 0-1.1-.2-.4-.1-.7-.4-1.1-.9-.5-.6-.6-1.2-.5-1.7.2-.5.5-.9 1.1-1.3.3-.2.6-.4 1-.5.3-.1.7-.2 1-.2.3 0 .7.1 1 .2.3.2.6.5.9.9zm1.9-.7c-.3-.4-.4-.7-.5-1-.1-.3-.1-.6 0-.8.1-.3.3-.5.5-.8.2-.3.5-.5.9-.8.1-.1.3-.2.4-.3.2-.1.4-.2.6-.4l.9-.6c.4-.2.9-.5 1.4-.9.6-.4 1.3-.8 2.1-1.3s1.8-1.2 3-1.9c.3-.2.6-.3.7-.3.1 0 .2.1.3.3l1 1.3c.6.8.8 1.5.8 2-.1.6-.3 1-.8 1.3-.3.2-.6.4-1.1.7-.5.3-1 .6-1.6.9-.6.3-1.2.6-1.9 1-.7.3-1.3.6-2 1-.7.3-1.3.6-1.9.9-.6.3-1.1.5-1.5.7-.2.1-.4.1-.5.1-.1 0-.2-.1-.3-.3l-.5-.8z"/></g><g><path class="st2" d="M39.8 94.7c-.6-.9-2.8-5.9-4.5-9.8-1.1-2.5-1.4-4.1-1.7-4.4-.7-.6-2.2-.7-2.9.8-.6 1.4-.6 4.7.9 6.7 0 0-5-1.9-12.8-7-2.6-1.7-3.9-2.2-4.9-.5-.9 1.5 2.3 3.6 2.3 3.6l6.1 4.3c-2.5-1.3-6.1-3.4-8-4.8-2.9-1.7-4.5-2-5.3-.6-.9 1.4 1.8 3.4 1.8 3.3 1.6 1.2 3.1 2.4 4.7 3.4-.8-.5-1.6-1-2.2-1.4-2.7-1.8-4-2.1-4.9-.7-.9 1.4 1.5 3.4 1.5 3.3.8.6 1.5 1.2 2.3 1.7-1.8-.9-2.5-.7-3.1.2-.9 1.4 2 3.8 2 3.8 4 3.1 7.8 5.6 11.4 7.6 0 0 4.4 2.3 7.5 2.9 3 .6 4.3 1.3 6.2.1 3-1.8 6.2-5.8 5.2-8.9-.1 0-.7-2.1-1.6-3.6z"/><path class="st3" d="M39.8 94.7c-.6-.9-2.8-5.9-4.5-9.8-1.1-2.5-1.4-4.1-1.7-4.4-.7-.6-2.2-.7-2.9.8-.6 1.4-.6 4.7.9 6.7 0 0-5-1.9-12.8-7-2.6-1.7-3.9-2.2-4.9-.5-.9 1.5 2.3 3.6 2.3 3.6l6.1 4.3c-2.5-1.3-6.1-3.4-8-4.8-2.9-1.7-4.5-2-5.3-.6-.9 1.4 1.8 3.4 1.8 3.3 1.6 1.2 3.1 2.4 4.7 3.4-.8-.5-1.6-1-2.2-1.4-2.7-1.8-4-2.1-4.9-.7-.9 1.4 1.5 3.4 1.5 3.3.8.6 1.5 1.2 2.3 1.7-1.8-.9-2.5-.7-3.1.2-.9 1.4 2 3.8 2 3.8 4 3.1 8.4 5.4 12 7.4 0 0 4.3 1.9 7.3 2.5 3 .6 3.8 1.3 5.7.2 3-1.8 6.3-5.2 5.3-8.4-.1 0-.7-2.1-1.6-3.6z"/><path class="st2" d="M21.3 98.5C18.4 96.9 12.2 92.4 9 90c0 0 7.8 7.5 12.3 8.5zM23.5 94.9c-2.9-1.6-9.7-6.3-12.9-8.6 0 0 8.4 7.5 12.9 8.6zM26.8 90.9c-1.7-.9-2.9-1.6-4.5-2.4-1.5-.7-7.6-5.3-7.6-5.3s1.7 1.7 3.3 3.1c0-.1 4.3 3.5 8.8 4.6zM31.4 88.1l.9 1.7s-2.4-2.2-2.7-2.4l1.8.7z"/><g><path class="st3" d="M12.1 103.3c.1-.1.1-.2.1-.3.1-.3-.1-.6-.4-.7-6.3-1.4-6.8-6.5-6.8-6.5 0-.3-.3-.5-.6-.5s-.5.3-.5.6c0 .1.5 5.9 7.6 7.7.2-.1.4-.1.6-.3zM10 107.3c.1-.1.1-.1.1-.2.1-.3-.1-.6-.3-.7-7.5-2.6-8.6-8.5-8.7-8.5-.1-.3-.3-.5-.7-.4-.2-.1-.4.2-.4.5s1.3 6.6 9.4 9.4c.2.1.4 0 .6-.1z"/></g></g></g></switch></svg>